# xmcd
#
# Track frame offsets:
#	150
#	15523
#	29193
#	47196
#	60655
#	74470
#	92935
#	104443
#	120729
#	138026
#	154213
#	169440
#	182273
#	196923
#	213028
#	232225
#	250766
#	268061
#	282913
#	298001
#
# Disc length: 4160 seconds
#
# Revision: 5
# Processed by: cddbd v1.5.2PL0 Copyright (c) Steve Scherf et al.
# Submitted via: audiograbber 1.83.01
#
DISCID=2f103e14
DTITLE=Various Artist - New Country Collection Vol.04 [CD2)
DYEAR=2010
DGENRE=Country
TTITLE0=Brad Paisley - Wrapped Around
TTITLE1=Tracy Byrd - Ten Rounds With Jose Cuervo (Recall Mix)
TTITLE2=Sara Evans - A Real Fine Place To Start
TTITLE3=Brooks and Dunn - Brand New Man
TTITLE4=Mark Wills - Days Of Thunder
TTITLE5=Miranda Lambert - Famous In A Small Town (Album Version)
TTITLE6=Travis Tritt - Here's A Quarter
TTITLE7=Steve Holy - Brand New Girlfriend
TTITLE8=Jason Michael Carroll - No Good In Goodbye (Featuring Jewel)
TTITLE9=Patty Loveless - Blame It On Your Heart
TTITLE10=Alabama - If You're Gonna Play In Texas (You Gotta Have A Fiddle In Th
TTITLE10=e Band)
TTITLE11=Collin Raye - If I Were You (And She Were Mine)
TTITLE12=Dolly Parton - More Where That Came From (Album Version)
TTITLE13=Crystal Shawanda - You Can Let Go
TTITLE14=Hank Williams Jr. - Red, White and Pink-Slip Blues
TTITLE15=Lila McCann - Yippy Ky Yay (Album Version)
TTITLE16=Tracy Lawrence - You Can't Hide Redneck
TTITLE17=Gretchen Wilson - You Don't Have To Go Home
TTITLE18=Randy Travis - Three Wooden Crosses
TTITLE19=Daryle Singletary - (Take Me Home) Country Roads
EXTD=
EXTT0=
EXTT1=
EXTT2=
EXTT3=
EXTT4=
EXTT5=
EXTT6=
EXTT7=
EXTT8=
EXTT9=
EXTT10=
EXTT11=
EXTT12=
EXTT13=
EXTT14=
EXTT15=
EXTT16=
EXTT17=
EXTT18=
EXTT19=
PLAYORDER=
